<svg xmlns="http://www.w3.org/2000/svg" xmlns:xlink="http://www.w3.org/1999/xlink" width="165" height="120"><defs><radialGradient id="a" fx="50%" fy="50%"><stop offset="0%"/><stop offset="100%" stop-opacity="0"/></radialGradient><linearGradient id="b" x1="4.47%" x2="117.825%" y1="0%" y2="133.334%"><stop offset="0%" stop-color="#5B79A2"/><stop offset="100%" stop-color="#2E4469"/></linearGradient><linearGradient id="c" x1="9.756%" x2="107.616%" y1="12.311%" y2="108.711%"><stop offset="0%" stop-color="#21C8F6"/><stop offset="100%" stop-color="#637BFF" stop-opacity="0"/></linearGradient><rect id="d" width="44.16" height="44.16" rx="22.05"/><linearGradient id="f" x1="50%" x2="50%" y1="0%" y2="97.483%"><stop offset="0%" stop-color="#21C8F6"/><stop offset="100%" stop-color="#637BFF"/></linearGradient><circle id="g" cx="22.5" cy="22.5" r="22.5"/><linearGradient id="h" x1="25.824%" x2="58.911%" y1="-37.873%" y2="73.214%"><stop offset="0%" stop-color="#587CB9"/><stop offset="100%" stop-color="#2E4469" stop-opacity="0"/></linearGradient><path id="i" d="M12.393 42.607C5.043 38.905 0 31.292 0 22.5 0 10.074 10.074 0 22.5 0c8.792 0 16.405 5.042 20.107 12.393A22.406 22.406 0 0 0 32.5 10C20.074 10 10 20.074 10 32.5a22.4 22.4 0 0 0 2.393 10.107z"/><linearGradient id="j" x1="34.652%" y1="13.21%" y2="100%"><stop offset="0%" stop-color="#76E1FF"/><stop offset="100%" stop-color="#637BFF" stop-opacity="0"/></linearGradient></defs><g fill="none" fill-rule="evenodd"><g transform="translate(45 25)"><circle cx="36.5" cy="36.5" r="36.5" fill="url(#a)"/><path d="M21.63 1.802V13.97M52.272 1.802V13.97M36.5 1.802V13.97M3.605 49.568h12.167M3.605 18.926h12.167M3.605 34.698h12.167M58.58 49.568h12.167M58.58 18.926h12.167M58.58 34.698h12.167M21.63 56.778v12.166m30.642-12.166v12.166M36.5 56.778v12.166" stroke="#4A658D" stroke-linecap="round" stroke-width="2.7"/><rect width="60.383" height="60.383" x="7.21" y="5.407" fill="url(#b)" rx="7.2"/><rect width="60.383" height="60.383" x="7.21" y="5.407" fill="url(#b)" rx="7.2"/><circle cx="37.401" cy="35.599" r="25.685" fill="#2E4469"/><circle cx="37.401" cy="35.599" r="23.883" stroke="url(#c)" stroke-width=".5" opacity=".51"/><g transform="translate(15.321 13.519)"><mask id="e" fill="#fff"><use xlink:href="#d"/></mask><use fill="#243552" xlink:href="#d"/><g mask="url(#e)" opacity=".603"><g stroke="url(#f)" stroke-width=".9" transform="translate(3.605 -1)"><g transform="rotate(-90 18.975 12.667)"><path d="M30.476 3.522H17.63m12.846 17.289H17.63m12.846-8.324h-7.962v15.451H0v5.408"/><ellipse cx="14.223" cy="3.522" rx="3.408" ry="3.522"/><ellipse cx="14.223" cy="20.811" rx="3.408" ry="3.522"/></g><path d="M0 44.354v-10.64h7.21v6.708h6.309V28.488h13.067v9.467h4.507V25.333h9.012"/><path d="M22.418 44.26V31.642H10.252v-6.336H2.704V1.901"/></g></g></g></g><g transform="translate(60 38)"><use fill="#D8D8D8" fill-opacity="0" xlink:href="#g"/><use fill="url(#h)" xlink:href="#i"/></g><g transform="rotate(7 -265.434 103.79)"><g transform="scale(-1 1) rotate(48 -14.89 -33.443)"><path stroke="url(#j)" stroke-width="2" d="M43.128 39.535L31.335 3.486l-28.36 15.35"/><circle cx="31.5" cy="3.5" r="3.5" fill="url(#f)"/><path fill="#FFF" fill-opacity=".2" d="M29.333 6A3.333 3.333 0 1 1 34 1.333 3.333 3.333 0 0 0 29.333 6z"/></g><rect width="4" height="11" x="39.821" y="8.352" fill="url(#f)" rx="2" transform="rotate(-7 41.82 13.852)"/></g><g transform="rotate(-173 79.402 38.287)"><g transform="scale(-1 1) rotate(48 -14.89 -33.443)"><path stroke="url(#j)" stroke-width="2" d="M43.128 39.535L31.335 3.486l-28.36 15.35"/><circle cx="31.5" cy="3.5" r="3.5" fill="url(#f)"/><path fill="#FFF" fill-opacity=".2" d="M29.333 6A3.333 3.333 0 1 1 34 1.333 3.333 3.333 0 0 0 29.333 6z"/></g><rect width="4" height="11" x="39.821" y="8.352" fill="url(#f)" rx="2" transform="rotate(-7 41.82 13.852)"/></g></g></svg>