<svg width="16" height="15" viewBox="0 0 16 15" fill="none" xmlns="http://www.w3.org/2000/svg">
<path d="M2 2.6665V0.666504H3.33333V2.6665H5.33333V3.99984H3.33333V5.99984H2V3.99984H0V2.6665H2ZM4 6.6665V4.6665H6V2.6665H10.6667L11.8867 3.99984H14C14.7333 3.99984 15.3333 4.59984 15.3333 5.33317V13.3332C15.3333 14.0665 14.7333 14.6665 14 14.6665H3.33333C2.6 14.6665 2 14.0665 2 13.3332V6.6665H4ZM8.66667 12.6665C10.5067 12.6665 12 11.1732 12 9.33317C12 7.49317 10.5067 5.99984 8.66667 5.99984C6.82667 5.99984 5.33333 7.49317 5.33333 9.33317C5.33333 11.1732 6.82667 12.6665 8.66667 12.6665ZM6.53333 9.33317C6.53333 10.5132 7.48667 11.4665 8.66667 11.4665C9.84667 11.4665 10.8 10.5132 10.8 9.33317C10.8 8.15317 9.84667 7.19984 8.66667 7.19984C7.48667 7.19984 6.53333 8.15317 6.53333 9.33317Z" fill="#CCCCCC"/>
</svg>
