<svg width="21" height="24" viewBox="0 0 21 24" fill="none" xmlns="http://www.w3.org/2000/svg">
<path d="M0.734375 22.4824C0.734375 21.723 1.34998 21.1074 2.10937 21.1074H19.2562C20.0156 21.1074 20.6312 21.723 20.6312 22.4824V23.1269H0.734375V22.4824Z" fill="#C2C9D6"/>
<rect x="2.45312" y="12.2344" width="16.6752" height="7.34766" fill="#C2C9D6"/>
<path d="M8.49292 15.7969C8.49292 15.0375 9.10853 14.4219 9.86792 14.4219H12.2086C12.968 14.4219 13.5836 15.0375 13.5836 15.7969V19.7933H8.49292V15.7969Z" fill="white"/>
<path fill-rule="evenodd" clip-rule="evenodd" d="M6.87271 2.28711L1.43848 7.2715H20.1483L14.7465 2.28711H6.87271Z" fill="#C2C9D6"/>
<path d="M1.43848 7.2715L0.973764 6.76484C0.764856 6.95646 0.694975 7.25665 0.797781 7.52083C0.900588 7.785 1.155 7.959 1.43848 7.959L1.43848 7.2715ZM6.87271 2.28711V1.59961C6.70063 1.59961 6.53481 1.66414 6.408 1.78046L6.87271 2.28711ZM20.1483 7.2715V7.959C20.4314 7.959 20.6856 7.78546 20.7887 7.52178C20.8917 7.2581 20.8226 6.95821 20.6146 6.76623L20.1483 7.2715ZM14.7465 2.28711L15.2127 1.78184C15.0857 1.66467 14.9193 1.59961 14.7465 1.59961V2.28711ZM1.90319 7.77815L7.33742 2.79376L6.408 1.78046L0.973764 6.76484L1.90319 7.77815ZM20.1483 6.584H1.43848V7.959H20.1483V6.584ZM14.2803 2.79238L19.6821 7.77677L20.6146 6.76623L15.2127 1.78184L14.2803 2.79238ZM14.7465 1.59961H6.87271V2.97461H14.7465V1.59961Z" fill="#C2C9D6"/>
<path d="M0.657227 6.70622C0.657227 6.51745 0.810254 6.36328 0.999023 6.36328H7.12634C7.31511 6.36328 7.46813 6.51745 7.46813 6.70622C7.46813 8.587 5.94346 10.123 4.06268 10.123C2.1819 10.123 0.657227 8.587 0.657227 6.70622Z" fill="#C2C9D6"/>
<path d="M7.30664 6.59827C7.30664 6.46849 7.41185 6.36328 7.54163 6.36328H13.8826C14.0123 6.36328 14.1175 6.46849 14.1175 6.59827V6.71759C14.1175 8.59837 12.5929 10.123 10.7121 10.123C8.83131 10.123 7.30664 8.59837 7.30664 6.71759V6.59827Z" fill="#C2C9D6"/>
<path d="M14.1172 6.59827C14.1172 6.46849 14.2224 6.36328 14.3522 6.36328H20.6931C20.8229 6.36328 20.9281 6.46849 20.9281 6.59827V6.71759C20.9281 8.59837 19.4034 10.123 17.5226 10.123C15.6419 10.123 14.1172 8.59837 14.1172 6.71759V6.59827Z" fill="#C2C9D6"/>
<line x1="7.33048" y1="8.24933" x2="8.29785" y2="1.49426" stroke="white" stroke-width="1.375" stroke-linecap="round"/>
<line x1="14.0077" y1="8.44809" x2="13.0062" y2="1.69205" stroke="white" stroke-width="1.375" stroke-linecap="round" stroke-linejoin="round"/>
</svg>
