<?xml version="1.0" standalone="no"?>
<!DOCTYPE svg PUBLIC "-//W3C//DTD SVG 20010904//EN"
 "http://www.w3.org/TR/2001/REC-SVG-20010904/DTD/svg10.dtd">
<svg version="1.0" xmlns="http://www.w3.org/2000/svg"
 width="800.000000pt" height="856.000000pt" viewBox="0 0 800.000000 856.000000"
 preserveAspectRatio="xMidYMid meet">

<g transform="translate(0.000000,856.000000) scale(0.100000,-0.100000)"
fill="#000000" stroke="none">
<path d="M3705 7760 c-3 -5 -22 -10 -41 -10 -19 0 -42 -4 -52 -9 -9 -5 -51
-24 -92 -44 -136 -64 -259 -199 -307 -337 -13 -36 -26 -72 -29 -80 -19 -44
-13 -50 52 -50 34 0 69 3 78 6 9 3 23 30 31 58 35 119 162 254 269 286 23 7
49 16 58 21 24 12 245 12 253 -1 3 -5 15 -10 26 -10 11 0 39 -10 62 -21 124
-63 222 -175 242 -277 11 -52 28 -62 104 -61 l69 1 -13 47 c-57 201 -166 336
-340 420 -38 19 -78 38 -87 43 -10 4 -33 8 -52 8 -19 0 -38 5 -41 10 -3 6 -46
10 -95 10 -49 0 -92 -4 -95 -10z"/>
<path d="M2110 6808 l0 -330 -29 -25 c-26 -23 -46 -36 -141 -93 -19 -11 -55
-34 -80 -50 -25 -16 -62 -39 -82 -50 l-38 -20 0 -2005 0 -2005 2060 0 2060 0
0 2000 c0 1578 -3 2002 -13 2010 -6 6 -34 25 -62 42 -110 68 -132 82 -172 110
-23 15 -44 28 -48 28 -3 0 -22 12 -41 26 l-34 27 0 331 1 331 -1690 2 -1691 1
0 -330z m3183 182 c18 0 4 -29 -30 -59 -21 -18 -83 -74 -137 -125 -55 -50
-111 -101 -124 -113 -22 -20 -23 -43 -3 -43 5 0 63 -36 130 -80 67 -44 136
-88 154 -98 30 -16 57 -33 222 -141 38 -25 78 -50 89 -56 40 -21 27 -32 -41
-39 -86 -7 -3449 -7 -3521 1 -59 7 -62 18 -11 46 19 11 36 22 39 26 3 4 34 25
70 46 36 21 86 54 112 72 26 18 50 33 53 33 6 0 71 41 220 140 39 25 79 49 89
53 10 4 16 10 14 15 -3 8 -129 127 -246 232 -69 62 -84 84 -62 92 7 2 2606 1
2983 -2z m-2888 -160 c3 -5 1 -10 -4 -10 -6 0 -11 5 -11 10 0 6 2 10 4 10 3 0
8 -4 11 -10z m2815 6 c0 -3 -4 -8 -10 -11 -5 -3 -10 -1 -10 4 0 6 5 11 10 11
6 0 10 -2 10 -4z m-2740 -86 c0 -5 -4 -10 -10 -10 -5 0 -10 5 -10 10 0 6 5 10
10 10 6 0 10 -4 10 -10z m2660 0 c0 -5 -4 -10 -10 -10 -5 0 -10 5 -10 10 0 6
5 10 10 10 6 0 10 -4 10 -10z m-2920 -300 c0 -5 -5 -10 -11 -10 -5 0 -7 5 -4
10 3 6 8 10 11 10 2 0 4 -4 4 -10z m932 -684 c24 -29 23 -68 -3 -84 -18 -12
-20 -22 -18 -102 2 -97 -8 -123 -45 -118 -19 3 -21 10 -24 102 -2 76 -7 105
-21 125 -14 20 -16 33 -10 57 15 54 83 65 121 20z m791 2 c21 -25 22 -58 2
-84 -10 -14 -14 -48 -15 -124 0 -58 -4 -110 -8 -115 -4 -6 -32 -23 -62 -39
-82 -43 -79 -39 -82 -139 l-3 -92 -30 0 -30 0 -3 112 c-3 126 -7 118 83 167
l60 33 2 88 c2 77 0 91 -17 107 -27 26 -25 64 6 94 29 30 67 27 97 -8z m-533
4 c19 -16 22 -24 16 -55 -4 -20 -14 -40 -22 -45 -13 -7 -15 -43 -12 -250 3
-224 2 -243 -14 -248 -10 -3 -27 -2 -38 1 -19 6 -20 15 -20 248 -1 197 -3 246
-15 261 -51 67 39 142 105 88z m264 2 c20 -20 21 -78 1 -94 -12 -10 -15 -37
-15 -119 0 -58 -4 -111 -8 -117 -4 -5 -34 -25 -67 -43 -33 -19 -62 -35 -64
-37 -2 -2 -3 -44 -2 -93 2 -82 0 -90 -19 -96 -11 -3 -28 -4 -37 -1 -16 5 -18
19 -17 118 l2 113 68 41 69 40 3 87 c2 76 0 89 -18 107 -26 26 -25 50 1 84 24
30 78 36 103 10z m901 -19 c28 -27 31 -61 10 -89 -11 -14 -15 -47 -16 -110 0
-50 -4 -99 -8 -109 -4 -11 -34 -33 -66 -51 l-60 -32 0 -92 c0 -99 -8 -112 -55
-97 -18 6 -20 15 -20 116 l0 109 68 44 68 43 0 74 c-1 54 -6 81 -18 99 -10 13
-18 35 -18 48 0 29 42 72 70 72 12 0 32 -11 45 -25z m-1309 -32 c14 -24 18
-246 5 -271 -6 -11 -40 -35 -76 -53 l-66 -33 2 -89 c2 -94 -5 -111 -42 -105
-23 3 -24 6 -27 112 -2 69 1 113 8 122 7 7 36 27 65 43 30 17 59 41 66 53 7
14 10 55 7 119 -3 61 -1 102 6 109 15 15 40 12 52 -7z m243 3 c8 -10 11 -52 9
-132 -3 -98 -6 -119 -20 -128 -13 -8 -23 -8 -35 0 -14 8 -16 29 -15 132 0 67
3 126 7 132 9 15 41 12 54 -4z m536 -299 c0 -256 -2 -265 -50 -253 l-25 6 1
239 c0 132 3 242 7 246 3 3 20 5 37 3 l30 -3 0 -238z m285 223 c11 -6 24 -27
30 -48 10 -35 8 -39 -21 -65 -31 -29 -56 -29 -89 -2 -8 7 -25 15 -38 18 -36 9
-43 -26 -40 -209 3 -162 3 -165 -19 -170 -12 -3 -29 -2 -38 3 -15 9 -16 34
-15 213 0 111 5 211 10 221 9 15 18 17 60 12 37 -4 55 -2 68 9 31 28 62 34 92
18z m387 -72 c27 -25 31 -73 8 -98 -11 -12 -16 -39 -16 -87 0 -38 -4 -75 -8
-81 -3 -6 -35 -12 -71 -14 l-64 -3 3 -57 c2 -54 1 -58 -23 -64 -48 -12 -54 -2
-55 88 0 119 -2 116 74 112 l65 -3 0 47 c-1 26 -7 58 -15 72 -22 38 -18 66 11
89 34 27 62 27 91 -1z m-2046 2 c24 -13 27 -91 4 -110 -13 -11 -15 -42 -13
-199 l3 -186 80 0 c75 0 80 -1 92 -25 21 -42 -4 -51 -132 -48 l-110 3 -5 225
c-4 186 -8 230 -22 254 -17 30 -10 72 15 88 17 11 65 10 88 -2z m889 -70 c0
-5 -4 -10 -10 -10 -5 0 -10 5 -10 10 0 6 5 10 10 10 6 0 10 -4 10 -10z m741
-42 c1 -7 1 -76 1 -153 l0 -140 -33 0 -34 0 -3 130 c-3 162 -1 175 38 175 17
0 30 -6 31 -12z m-1461 -33 c9 -11 32 -15 81 -15 42 0 71 -5 75 -12 4 -7 7
-59 6 -117 -1 -95 -3 -107 -21 -115 -42 -18 -51 -3 -51 89 l0 85 -40 0 c-22 0
-40 -5 -40 -10 0 -20 -52 -32 -81 -20 -49 21 -57 94 -15 122 19 13 73 9 86 -7z
m415 -47 c2 -7 5 -57 7 -111 3 -85 1 -98 -14 -103 -10 -3 -27 -2 -38 1 -18 6
-20 15 -20 105 0 84 3 101 18 109 23 14 42 13 47 -1z m384 -2 c8 -9 11 -47 9
-106 -2 -76 -6 -95 -20 -104 -13 -8 -23 -8 -35 0 -26 16 -32 184 -8 208 20 20
39 20 54 2z m281 4 c0 -5 -5 -10 -11 -10 -5 0 -7 5 -4 10 3 6 8 10 11 10 2 0
4 -4 4 -10z m1228 -56 c16 -11 22 -25 22 -54 0 -29 -6 -43 -22 -54 -29 -20
-67 -20 -89 0 -20 18 -101 26 -136 13 -25 -9 -25 -10 -21 -117 l3 -107 -125 0
c-120 0 -125 1 -128 21 -6 39 19 50 102 47 l76 -3 0 108 c0 59 4 113 8 119 6
9 37 12 105 11 80 -2 100 1 114 15 21 21 62 22 91 1z m-2308 -44 c0 -5 -4 -10
-10 -10 -5 0 -10 5 -10 10 0 6 5 10 10 10 6 0 10 -4 10 -10z m-645 -26 c12
-12 38 -16 103 -18 l87 -1 67 -120 c104 -186 87 -174 247 -177 l136 -3 0 -30
0 -30 -164 0 -164 0 -81 142 -81 143 -65 -1 c-42 0 -72 -5 -84 -14 -31 -24
-72 -19 -95 11 -12 15 -21 34 -21 44 0 10 9 29 21 44 24 30 69 35 94 10z m985
-114 c0 -5 -9 -10 -20 -10 -11 0 -20 5 -20 10 0 6 9 10 20 10 11 0 20 -4 20
-10z m380 0 c0 -5 -7 -10 -16 -10 -8 0 -12 5 -9 10 3 6 10 10 16 10 5 0 9 -4
9 -10z m240 0 c0 -5 -4 -10 -10 -10 -5 0 -10 5 -10 10 0 6 5 10 10 10 6 0 10
-4 10 -10z m175 0 c3 -5 1 -10 -4 -10 -6 0 -11 5 -11 10 0 6 2 10 4 10 3 0 8
-4 11 -10z m1573 -39 c27 -23 30 -76 5 -103 -20 -22 -76 -24 -93 -3 -10 12
-31 15 -84 13 l-71 -2 -73 -70 -73 -71 -247 4 c-256 3 -265 5 -260 46 3 19 12
20 243 23 l240 3 70 69 70 70 78 0 c64 0 84 4 104 20 32 25 61 25 91 1z m-983
-29 c7 -4 8 -286 5 -827 l-5 -819 -810 -1 c-469 0 -815 3 -822 8 -19 14 -19
1633 0 1640 20 8 1621 7 1632 -1z m615 -46 c0 -3 -4 -8 -10 -11 -5 -3 -10 -1
-10 4 0 6 5 11 10 11 6 0 10 -2 10 -4z m260 -66 c0 -5 -4 -10 -10 -10 -5 0
-10 5 -10 10 0 6 5 10 10 10 6 0 10 -4 10 -10z m-3076 -135 c4 -11 23 -15 79
-15 79 0 102 -12 95 -47 -3 -15 -16 -19 -80 -23 -53 -3 -82 -10 -95 -22 -27
-25 -60 -22 -88 7 -30 29 -32 68 -5 95 24 24 85 27 94 5z m464 -25 c44 -41 25
-53 -92 -60 l-90 -5 -28 -45 c-15 -25 -32 -56 -38 -69 -6 -13 -19 -36 -30 -51
-11 -16 -20 -34 -20 -40 0 -33 -34 -39 -206 -40 -145 0 -174 -2 -185 -16 -10
-12 -24 -15 -52 -11 -46 6 -53 12 -61 53 -6 25 -2 36 21 58 22 22 33 26 57 22
17 -4 34 -13 39 -21 6 -12 37 -15 166 -15 l157 0 17 33 c9 17 39 73 66 122
l50 90 98 6 c54 3 101 6 104 7 3 1 15 -7 27 -18z m2204 3 c8 -10 29 -43 45
-73 17 -30 45 -81 64 -112 l33 -58 138 0 c106 0 139 3 145 14 4 7 22 17 39 20
25 6 35 2 58 -20 22 -22 26 -33 21 -58 -7 -34 -38 -66 -64 -66 -9 0 -27 7 -40
17 -20 13 -52 16 -175 18 -84 0 -156 4 -162 8 -6 3 -26 36 -45 72 -34 67 -53
83 -47 41 1 -13 -5 -32 -14 -43 -9 -10 -18 -33 -20 -52 l-3 -34 -170 2 c-93 1
-174 6 -178 10 -11 11 2 61 17 62 6 0 70 0 141 0 112 -1 128 1 113 12 -27 21
-24 82 4 101 28 20 62 20 82 1 26 -26 26 -16 2 28 l-24 42 -165 3 c-176 3
-187 6 -172 53 6 17 21 19 173 22 92 1 172 4 178 5 6 1 18 -6 26 -15z m-2792
-83 c0 -5 -4 -10 -10 -10 -5 0 -10 5 -10 10 0 6 5 10 10 10 6 0 10 -4 10 -10z
m598 -77 c2 -22 -1 -33 -10 -33 -7 -1 -58 -2 -113 -3 l-100 -1 0 27 c-1 16 6
32 15 38 8 5 58 8 110 6 l95 -2 3 -32z m2042 22 c13 -16 5 -55 -13 -55 -26 -1
-183 -1 -193 -1 -16 1 -26 30 -19 52 6 17 18 19 109 19 78 0 106 -4 116 -15z
m-2820 1 c0 -3 -4 -8 -10 -11 -5 -3 -10 -1 -10 4 0 6 5 11 10 11 6 0 10 -2 10
-4z m0 -46 c0 -5 -4 -10 -10 -10 -5 0 -10 5 -10 10 0 6 5 10 10 10 6 0 10 -4
10 -10z m773 -84 c4 -6 6 -20 5 -31 -3 -18 -12 -20 -101 -25 -54 -3 -105 -1
-113 3 -18 10 -18 41 -1 59 17 16 198 12 210 -6z m-308 -76 c3 -5 -1 -10 -9
-10 -9 0 -16 5 -16 10 0 6 4 10 9 10 6 0 13 -4 16 -10z m2778 -22 c24 -28 21
-60 -8 -92 -29 -31 -65 -34 -90 -6 -16 17 -31 20 -112 20 -67 0 -93 -3 -94
-12 0 -7 0 -68 1 -134 1 -91 -2 -123 -12 -126 -10 -3 -292 -2 -319 1 -14 2
-20 54 -7 62 7 5 71 9 141 9 l128 0 -2 130 c-1 72 1 133 4 136 3 4 63 6 131 6
73 0 128 4 132 9 10 16 47 28 69 22 11 -2 28 -14 38 -25z m-2830 2 c23 -18 40
-20 180 -20 86 0 162 -3 171 -6 22 -9 21 -61 -1 -67 -10 -3 -83 -4 -163 -3
-127 2 -150 0 -181 -17 -45 -24 -86 -14 -108 25 -25 44 12 100 70 107 4 1 18
-8 32 -19z m2405 -33 c15 -17 4 -55 -17 -61 -9 -3 -56 -4 -106 -2 -88 3 -90 4
-100 30 -7 21 -6 29 5 36 24 15 206 12 218 -3z m592 -87 c25 -25 26 -70 1 -98
-21 -25 -50 -28 -89 -8 -15 7 -45 16 -67 19 l-40 7 -137 -139 -137 -139 -167
-3 c-148 -2 -169 -1 -178 14 -8 12 -8 22 0 35 10 15 31 17 160 20 l148 3 133
132 c73 73 143 135 156 138 12 4 38 5 57 2 26 -4 42 1 60 16 32 26 74 27 100
1z m-3220 -5 c9 -10 32 -15 75 -15 35 0 71 -3 80 -6 9 -4 29 -33 46 -66 16
-32 50 -90 74 -129 l45 -69 122 0 c68 0 128 -4 134 -8 19 -13 23 -40 9 -52
-21 -18 -305 -16 -317 2 -14 21 -122 207 -133 228 -8 16 -20 20 -66 20 -38 0
-61 -5 -69 -15 -29 -35 -96 -12 -113 38 -8 20 16 72 35 80 26 11 66 7 78 -8z
m592 -49 c4 -6 2 -18 -3 -28 -9 -16 -25 -18 -158 -18 -161 0 -184 7 -161 49
10 19 21 21 148 23 129 3 156 -1 174 -26z m2033 -11 l0 -30 -110 0 c-98 0
-110 2 -113 18 -8 39 15 48 122 45 l101 -3 0 -30z m415 -55 c0 -5 -5 -10 -11
-10 -5 0 -7 5 -4 10 3 6 8 10 11 10 2 0 4 -4 4 -10z m120 -30 c24 -24 26 -67
3 -92 -19 -22 -85 -24 -102 -4 -8 9 -24 12 -49 9 -49 -7 -71 15 -54 52 9 20
19 25 51 25 22 0 44 6 51 15 18 22 76 19 100 -5z m-2586 -16 c19 -7 22 -60 4
-66 -22 -7 -193 -3 -206 6 -16 9 -16 53 1 59 18 8 182 8 201 1z m2656 -14 c0
-5 -2 -10 -4 -10 -3 0 -8 5 -11 10 -3 6 -1 10 4 10 6 0 11 -4 11 -10z m-2880
-70 c0 -5 -2 -10 -4 -10 -3 0 -8 5 -11 10 -3 6 -1 10 4 10 6 0 11 -4 11 -10z
m2942 -22 c10 -13 18 -29 18 -36 0 -25 -30 -70 -51 -75 -23 -6 -63 6 -74 22
-4 7 -49 11 -116 11 l-109 0 0 -59 c0 -33 -2 -66 -6 -74 -4 -12 -46 -14 -267
-10 -144 2 -268 6 -274 8 -18 6 -16 52 3 59 9 3 119 6 246 6 l229 0 -1 58 c-1
31 -1 63 -1 70 1 9 36 12 142 12 122 0 144 2 165 19 30 24 73 19 96 -11z
m-138 -149 c47 -37 26 -119 -32 -119 -17 0 -48 -24 -106 -82 -146 -147 -102
-131 -358 -133 -123 -2 -231 1 -240 6 -21 11 -23 40 -6 57 9 9 73 12 229 12
l216 0 91 90 c67 68 92 99 96 125 7 35 37 65 67 65 9 0 28 -9 43 -21z m-2566
-36 c2 -18 0 -34 -5 -34 -4 -1 -51 -3 -103 -5 l-95 -3 -58 -60 -58 -61 -82 0
c-58 0 -89 -5 -103 -15 -71 -54 -153 37 -89 100 29 30 58 32 92 5 21 -16 37
-19 90 -16 63 4 64 5 126 65 l62 61 110 -2 110 -3 3 -32z m1902 -63 c0 -5 -5
-10 -11 -10 -5 0 -7 5 -4 10 3 6 8 10 11 10 2 0 4 -4 4 -10z m-1899 -57 c5
-14 3 -25 -4 -32 -14 -11 -198 -18 -214 -8 -17 10 -9 60 10 66 9 3 57 4 108 1
83 -5 93 -7 100 -27z m2214 19 c15 -11 18 -49 4 -58 -19 -11 -390 -7 -402 5
-5 5 -7 21 -3 35 l6 26 193 0 c105 0 197 -4 202 -8z m265 -76 c0 -3 -4 -8 -10
-11 -5 -3 -10 -1 -10 4 0 6 5 11 10 11 6 0 10 -2 10 -4z m-3104 -31 c16 -12
69 -14 306 -15 157 0 293 -3 302 -6 19 -7 22 -60 4 -66 -7 -2 -142 -3 -300 -2
-272 2 -288 1 -310 -17 -30 -27 -76 -21 -101 13 -48 64 34 142 99 93z m608
-151 c19 -7 21 -50 4 -61 -7 -4 -47 -7 -88 -8 l-75 0 -2 -35 c-1 -19 -2 -41
-2 -47 -1 -10 -31 -13 -114 -13 -84 0 -118 -4 -133 -15 -26 -20 -78 -19 -97 3
-29 32 -30 65 -3 95 29 31 61 34 95 11 17 -12 45 -17 100 -17 73 0 76 1 79 24
8 73 2 69 116 69 58 0 111 -3 120 -6z m2166 -102 l105 -106 2 -143 c0 -91 5
-149 13 -157 6 -8 13 -29 16 -48 11 -64 -58 -102 -114 -62 -26 18 -29 56 -7
97 10 20 15 66 17 154 l1 125 -87 87 -87 88 -88 0 c-95 0 -111 5 -111 32 0 33
20 39 128 39 l106 0 106 -106z m-10 78 c0 -5 -2 -10 -4 -10 -3 0 -8 5 -11 10
-3 6 -1 10 4 10 6 0 11 -4 11 -10z m-2146 -153 c14 -22 -3 -50 -35 -57 -17 -4
-24 -13 -25 -30 -1 -50 -1 -50 -81 -50 -53 -1 -84 -5 -97 -15 -27 -20 -80 -19
-98 3 -30 33 -30 58 -2 91 30 36 60 40 97 11 16 -13 40 -20 66 -20 40 0 41 1
41 33 0 18 5 38 10 43 17 17 112 10 124 -9z m154 15 c13 -9 17 -53 14 -169
l-2 -73 -107 0 -108 0 -3 -158 c-2 -148 -1 -160 18 -177 43 -39 9 -115 -51
-115 -56 0 -88 69 -54 114 12 16 15 58 15 207 0 161 2 188 16 193 9 3 58 6
110 6 l94 0 0 74 c0 41 3 81 6 90 7 17 31 21 52 8z m138 -3 c3 -6 6 -50 5 -98
l-2 -87 61 -64 60 -63 0 -113 c0 -102 2 -116 21 -135 15 -15 19 -28 14 -47
-20 -86 -135 -79 -135 7 0 22 6 44 15 51 12 10 15 36 15 113 l0 100 -60 54
-60 55 0 107 c0 70 4 111 12 119 15 15 45 16 54 1z m130 -1 c6 -9 8 -120 4
-211 0 -5 -15 -7 -32 -5 l-33 3 -3 90 c-4 114 1 135 33 135 13 0 27 -5 31 -12z
m129 -5 c3 -10 6 -123 5 -250 -1 -223 0 -233 18 -233 32 0 43 24 45 102 l3 74
62 60 62 60 0 91 c0 98 10 121 50 108 22 -7 22 -3 20 -135 l-1 -95 -66 -68
-65 -68 6 -52 c4 -28 14 -59 22 -68 24 -26 18 -75 -13 -99 -29 -23 -64 -21
-94 6 -9 8 -36 14 -62 14 -25 0 -48 4 -51 9 -3 4 -6 126 -7 270 -1 272 2 291
41 291 10 0 21 -8 25 -17z m127 5 c14 -11 16 -31 15 -108 -2 -90 -3 -95 -27
-107 -40 -20 -50 5 -49 111 1 50 3 96 6 103 6 16 34 17 55 1z m256 3 c10 -6
13 -57 14 -213 0 -113 -3 -211 -7 -218 -4 -7 -19 -10 -33 -7 -16 3 -42 -3 -64
-14 -20 -10 -46 -19 -58 -19 -50 0 -80 82 -43 122 20 22 76 24 96 3 36 -35 38
-25 37 153 -1 172 4 202 34 202 6 0 17 -4 24 -9z m132 -6 c8 -10 12 -53 11
-141 l-2 -125 65 -67 c59 -60 66 -70 66 -107 0 -22 10 -58 22 -81 21 -40 21
-43 5 -68 -34 -52 -110 -42 -130 17 -7 23 -5 33 12 51 13 14 21 35 21 57 0 29
-10 44 -65 99 l-65 64 0 146 c0 145 5 170 36 170 6 0 17 -7 24 -15z m136 3
c10 -17 12 -279 2 -300 -10 -21 -41 -24 -55 -5 -10 14 -10 288 1 305 9 15 43
16 52 0z m130 2 c7 -7 9 -68 6 -171 -4 -152 -4 -162 17 -189 42 -58 15 -130
-49 -130 -17 0 -39 9 -50 20 -24 24 -26 72 -5 90 12 10 15 44 15 186 0 144 3
175 16 188 18 18 36 20 50 6z m135 -2 c1 -7 1 -82 1 -166 l-1 -154 95 -95 c73
-74 94 -101 94 -123 0 -15 7 -33 15 -40 20 -17 19 -63 -3 -89 -25 -32 -79 -31
-103 0 -24 32 -24 68 1 94 l20 22 -27 34 c-16 19 -58 63 -95 98 l-67 64 -1
170 c0 114 3 174 11 183 14 17 59 18 60 2z m117 1 c15 -9 17 -26 14 -135 -2
-75 0 -130 6 -137 17 -20 181 -16 212 6 34 24 57 21 85 -9 29 -31 31 -55 9
-88 -22 -35 -61 -42 -95 -17 -25 18 -43 21 -146 21 -65 0 -123 4 -129 8 -8 5
-12 59 -12 172 -1 186 7 210 56 179z m142 -4 c7 -9 10 -40 8 -87 l-3 -73 145
-3 c100 -2 147 -6 152 -15 4 -7 8 -69 8 -138 0 -103 3 -128 15 -133 15 -6 20
-51 9 -81 -4 -8 -19 -22 -35 -30 -36 -19 -73 -4 -89 35 -10 23 -8 34 9 68 16
32 20 56 18 131 l-2 91 -152 0 -153 0 1 108 c1 59 4 115 6 125 5 21 46 23 63
2z m-835 -475 c-3 -5 -10 -10 -16 -10 -5 0 -9 5 -9 10 0 6 7 10 16 10 8 0 12
-4 9 -10z"/>
<path d="M3660 6850 c-207 -47 -341 -155 -444 -358 -27 -53 -58 -160 -48 -165
4 -1 42 -2 85 -2 l78 0 19 51 c35 101 123 218 183 245 12 5 37 18 54 29 93 56
276 65 383 19 143 -61 231 -153 280 -291 l18 -53 82 -1 c45 0 83 3 85 6 2 4
-9 43 -24 88 -53 152 -134 261 -256 343 -78 53 -123 71 -233 94 -92 19 -166
18 -262 -5z m-231 -159 c-13 -11 -28 -20 -34 -20 -5 0 3 11 20 24 16 13 31 22
34 20 2 -3 -7 -13 -20 -24z m777 -18 c-6 -6 -55 29 -56 40 0 5 14 -1 31 -13
16 -12 28 -24 25 -27z m-914 -145 c-7 -7 -12 -8 -12 -2 0 14 12 26 19 19 2 -3
-1 -11 -7 -17z m1028 6 c0 -8 -4 -12 -10 -9 -5 3 -10 10 -10 16 0 5 5 9 10 9
6 0 10 -7 10 -16z m-993 -126 c-3 -8 -6 -5 -6 6 -1 11 2 17 5 13 3 -3 4 -12 1
-19z"/>
<path d="M958 2009 c-15 -8 -18 -24 -18 -89 l0 -80 78 -2 c42 -1 103 0 135 1
35 2 63 -2 72 -9 13 -11 15 -80 15 -471 l0 -459 23 -5 c53 -12 167 -12 177 0
7 9 10 163 8 468 -3 423 -2 456 14 466 11 7 73 11 151 11 l134 0 -1 88 -1 87
-385 2 c-249 2 -391 -1 -402 -8z"/>
<path d="M3500 1986 c-36 -12 -79 -29 -96 -38 -38 -21 -100 -90 -127 -143 -28
-55 -34 -158 -13 -221 17 -52 98 -154 121 -154 8 0 30 -9 50 -20 20 -11 44
-20 53 -20 10 0 22 -4 27 -8 6 -5 30 -15 55 -22 25 -8 50 -17 55 -20 6 -4 39
-17 75 -30 108 -38 150 -80 150 -152 0 -85 -88 -148 -208 -148 -110 0 -189 46
-217 126 l-13 38 -92 1 -92 0 6 -43 c13 -97 73 -178 164 -222 73 -35 84 -39
132 -44 25 -3 70 -8 101 -12 38 -4 59 -3 63 5 4 6 27 11 51 11 24 0 47 5 50
10 3 6 15 10 26 10 37 0 172 112 163 135 -3 7 2 15 10 18 9 4 16 15 16 26 0
11 5 23 10 26 6 3 10 46 10 96 0 73 -4 97 -22 134 -13 24 -26 45 -30 45 -4 0
-20 12 -35 26 -38 36 -100 65 -218 103 -55 18 -108 37 -117 42 -10 5 -27 9
-38 9 -30 0 -102 56 -123 95 -33 65 1 153 75 190 50 24 177 21 225 -7 40 -24
65 -51 73 -81 4 -16 17 -19 98 -20 110 -2 112 1 60 93 -4 8 -12 24 -17 36 -27
61 -142 124 -263 144 -88 14 -123 12 -198 -14z m-40 -470 c0 -3 -4 -8 -10 -11
-5 -3 -10 -1 -10 4 0 6 5 11 10 11 6 0 10 -2 10 -4z"/>
<path d="M4150 1432 l0 -559 79 -2 c44 -1 82 2 85 7 3 5 7 121 9 258 2 196 6
254 17 274 52 89 130 120 211 86 39 -16 59 -37 83 -83 13 -27 16 -72 16 -288
l0 -255 80 0 c68 0 81 3 90 19 16 31 12 493 -5 565 -27 115 -121 185 -250 188
-48 1 -113 -26 -159 -64 -77 -66 -81 -59 -83 168 -1 104 -2 201 -3 217 l0 27
-85 0 -85 0 0 -558z"/>
<path d="M1959 1660 c-53 -9 -130 -42 -149 -65 -7 -8 -18 -15 -25 -15 -14 0
-67 -77 -96 -140 -6 -14 -15 -33 -20 -42 -13 -26 -10 -205 4 -258 33 -125 163
-246 277 -257 19 -2 45 -9 58 -15 18 -9 33 -9 68 0 24 7 55 12 69 12 13 0 27
5 30 10 3 6 14 10 24 10 63 0 219 152 196 190 -8 12 -185 13 -185 2 0 -14 -33
-46 -63 -62 -17 -8 -57 -14 -103 -14 -73 0 -75 1 -115 40 -48 47 -69 86 -69
130 l0 33 298 3 c180 2 300 -1 304 -7 4 -5 10 -31 13 -58 10 -73 61 -157 126
-211 31 -25 66 -46 78 -46 11 0 21 -4 21 -9 0 -9 83 -23 140 -23 130 0 240 71
295 190 38 80 38 80 -61 84 l-86 3 -19 -37 c-10 -20 -35 -49 -54 -64 -31 -23
-42 -26 -95 -22 -61 4 -97 25 -123 73 -41 75 -35 282 10 347 39 58 48 62 125
61 81 -1 110 -21 130 -85 l11 -39 96 3 96 3 -3 39 c-5 54 -63 156 -88 156 -8
0 -14 4 -14 9 0 16 -115 68 -167 75 -63 8 -171 -8 -228 -34 -49 -22 -130 -101
-150 -145 -7 -16 -19 -48 -26 -70 -7 -22 -17 -44 -21 -50 -4 -5 -8 -33 -8 -61
0 -29 -4 -56 -10 -59 -6 -4 -10 10 -10 35 0 22 -7 57 -15 76 -8 19 -14 38 -13
42 3 17 -44 98 -85 146 -85 98 -220 141 -368 116z m173 -152 c41 -24 59 -43
74 -78 9 -19 19 -42 23 -50 19 -37 5 -40 -185 -40 -173 0 -184 1 -184 19 0 48
49 119 105 149 27 15 140 15 167 0z"/>
<path d="M5255 1640 c-11 -5 -32 -9 -48 -9 -49 -2 -155 -61 -198 -112 -21 -26
-39 -52 -39 -58 0 -6 -4 -11 -10 -11 -5 0 -10 -11 -10 -25 0 -14 -4 -25 -9
-25 -13 0 -34 -156 -27 -203 9 -59 38 -147 48 -147 4 0 8 -7 8 -16 0 -20 104
-124 124 -124 9 0 16 -3 16 -8 0 -9 72 -32 103 -32 13 0 28 -5 34 -11 7 -7 28
-9 55 -5 23 4 62 9 86 12 23 3 42 10 42 15 0 5 6 9 13 9 42 0 149 89 176 147
7 15 21 42 30 58 23 43 23 267 0 310 -9 17 -23 43 -30 59 -24 51 -33 66 -41
66 -5 0 -21 12 -37 26 -43 38 -91 61 -157 74 -92 19 -108 20 -129 10z m104
-146 c43 -17 90 -64 96 -96 2 -11 8 -25 14 -32 29 -35 20 -203 -14 -264 -8
-15 -17 -34 -20 -42 -11 -28 -71 -61 -123 -67 -53 -6 -106 11 -131 41 -7 8
-19 12 -27 9 -10 -4 -12 0 -8 12 4 9 3 20 -2 24 -24 16 -34 69 -34 170 0 154
28 213 116 245 52 19 85 19 133 0z m-224 -524 c3 -5 -1 -10 -9 -10 -9 0 -16 5
-16 10 0 6 4 10 9 10 6 0 13 -4 16 -10z m405 6 c0 -3 -4 -8 -10 -11 -5 -3 -10
-1 -10 4 0 6 5 11 10 11 6 0 10 -2 10 -4z"/>
<path d="M6170 1636 c-67 -19 -114 -44 -145 -76 -18 -19 -39 -30 -56 -30 -29
0 -46 14 -29 25 14 9 12 62 -2 67 -7 2 -47 2 -88 -1 l-75 -6 -3 -517 c-1 -321
2 -526 8 -542 9 -24 14 -26 74 -26 103 0 96 -15 96 205 0 171 2 195 18 215
l18 22 34 -31 c19 -17 57 -41 85 -55 60 -28 159 -44 169 -27 4 6 18 11 30 11
40 0 89 27 139 75 86 85 127 187 123 308 -4 98 -19 155 -57 213 -75 115 -130
151 -269 178 -14 3 -45 -1 -70 -8z m51 -138 c67 -21 126 -80 145 -146 21 -73
14 -188 -15 -235 -30 -48 -81 -93 -121 -106 -48 -15 -137 -4 -175 22 -74 51
-97 96 -103 202 -4 69 -1 89 19 135 26 60 83 119 116 120 12 0 25 5 28 10 8
14 57 13 106 -2z m-161 -548 c0 -5 -4 -10 -10 -10 -5 0 -10 5 -10 10 0 6 5 10
10 10 6 0 10 -4 10 -10z"/>
</g>
</svg>
